<?xml version="1.0" encoding="UTF-8" standalone="no"?>
<!-- Generator: Adobe Illustrator 19.0.0, SVG Export Plug-In . SVG Version: 6.00 Build 0)  -->
<svg id="Capa_1" style="enable-background:new 0 0 512 512" xmlns="http://www.w3.org/2000/svg" xml:space="preserve" viewBox="0 0 512 512" version="1.1" y="0px" x="0px" xmlns:xlink="http://www.w3.org/1999/xlink">
		<path d="m256 0c-99.25 0-180 80.748-180 180 0 33.534 9.289 66.26 26.869 94.652l142.88 230.26c2.737 4.411 7.559 7.091 12.745 7.091h0.119c5.231-0.041 10.063-2.804 12.75-7.292l139.24-232.49c16.61-27.79 25.39-59.68 25.39-92.22 0-99.252-80.75-180-180-180zm128.87 256.82l-126.6 211.37-129.9-209.34c-14.64-23.64-22.57-50.9-22.57-78.85 0-82.71 67.49-150.2 150.2-150.2s150.1 67.49 150.1 150.2c0 27.12-7.41 53.69-21.23 76.82z"/>
		<path d="m256 90c-49.626 0-90 40.374-90 90 0 49.309 39.717 90 90 90 50.903 0 90-41.233 90-90 0-49.63-40.37-90-90-90zm0 150.2c-33.257 0-60.2-27.033-60.2-60.2 0-33.084 27.116-60.2 60.2-60.2s60.1 27.116 60.1 60.2c0 32.68-26.32 60.2-60.1 60.2z"/>
</svg>
