<?xml version="1.0" encoding="UTF-8" standalone="no"?>
<!-- Generator: Adobe Illustrator 19.0.0, SVG Export Plug-In . SVG Version: 6.00 Build 0)  -->
<svg id="Layer_1" style="enable-background:new 0 0 512 512" xmlns="http://www.w3.org/2000/svg" xml:space="preserve" viewBox="0 0 512 512" version="1.1" y="0px" x="0px" xmlns:xlink="http://www.w3.org/1999/xlink">
			<path d="m394.67 213.33c-64.698 0-117.33 52.635-117.33 117.33s52.63 117.34 117.33 117.34c20.625 0 40.906-5.427 58.677-15.708 5.094-2.948 6.844-9.469 3.885-14.573-2.948-5.104-9.479-6.865-14.573-3.885-14.521 8.396-31.115 12.833-47.99 12.833-52.938 0-96-43.063-96-96s43.063-96 96-96 96 43.063 96 96v10.667c0 11.76-9.573 21.333-21.333 21.333s-21.333-9.573-21.333-21.333v-42.667c0-5.896-4.771-10.667-10.667-10.667-2.869 0-5.447 1.161-7.362 3-9.428-8.401-21.714-13.667-35.305-13.667-29.406 0-53.333 23.927-53.333 53.333s23.91 53.34 53.32 53.34c15.896 0 30.03-7.131 39.81-18.202 7.727 10.977 20.44 18.202 34.857 18.202 23.52 0 42.66-19.14 42.66-42.67v-10.667c0-64.69-52.64-117.33-117.33-117.33zm0 149.34c-17.646 0-32-14.354-32-32s14.354-32 32-32 32 14.354 32 32c0 17.64-14.36 32-32 32z"/>
			<path d="m17.698 88.688l175.72 142.96c0.583 0.479 1.219 0.896 1.885 1.229 2.344 1.198 4.823 1.802 7.385 1.802 2.708 0 5.417-0.708 9.375-3.104l175.59-142.88c2.604-2.115 4.052-5.323 3.927-8.667s-1.813-6.438-4.563-8.354c-7.21-5.023-15.64-7.679-24.35-7.679h-320c-8.719 0-17.135 2.646-24.333 7.667-2.75 1.906-4.438 5-4.563 8.354-0.128 3.344 1.32 6.552 3.924 8.667z"/>
			<path d="m256 330.67c0-76.46 62.21-138.67 138.67-138.67 5.896 0 10.667-4.771 10.667-10.667v-57.09c0-4.115-2.365-7.865-6.083-9.635-3.719-1.729-8.115-1.219-11.313 1.365l-163.67 133.19-1.875 1.24c-12.302 7.552-27.417 7.938-41.302-1.229l-163.7-133.2c-3.177-2.594-7.573-3.115-11.313-1.365-3.722 1.76-6.087 5.52-6.087 9.63v195.77c0 23.531 19.135 42.667 42.667 42.667h204.36c3.094 0 6.031-1.344 8.063-3.677 2.021-2.333 2.938-5.438 2.5-8.5-1.08-7.58-1.59-13.89-1.59-19.82z"/>
</svg>
