<?xml version="1.0" encoding="UTF-8" standalone="no"?>
<!-- Created with Inkscape (http://www.inkscape.org/) -->
<svg id="svg1925" xmlns="http://www.w3.org/2000/svg" height="216" width="216" version="1.0">
 <g id="g1934">
  <path id="path1950" d="m153.5 200.52c-16.41-4.59-26.86-8.53-41-15.48-25.95-12.74-50.501-31.57-68.369-52.43-14.467-16.89-23.652-30.56-32.874-48.952-5.1142-10.197-5.6346-11.853-6.0423-19.223-0.4186-7.568-0.2326-8.523 3.0183-15.5 7.084-15.203 18.155-26.256 32.625-32.574 8.686-3.793 11.205-4.097 13.322-1.611 1.958 2.299 19.82 51.685 19.82 54.798 0 2.886-1.899 4.201-12.355 8.55-8.039 3.344-10.764 6.122-9.006 9.181 0.474 0.824 20.644 17.521 44.823 37.111 28.248 22.88 44.758 35.61 46.178 35.61 3.14 0 5.36-2.61 5.37-6.32 0.02-5.81 1.24-10.75 2.88-11.61 1.79-0.96 5.58-1.39 31.11-3.57 24.36-2.07 26.62-2.01 28.41 0.75 0.8 1.24 1.76 5.43 2.13 9.31 1.62 16.83-5.08 32.64-19.27 45.46-12.17 10.99-20.18 12.27-40.77 6.5z"/>
  <path id="path1948" d="m153.5 200.52c-33.35-9.33-61.284-24.03-87-45.79-22.522-19.05-41.215-43.1-55.243-71.072-5.1142-10.197-5.6346-11.853-6.0423-19.223-0.4186-7.568-0.2326-8.523 3.0183-15.5 7.142-15.328 18.794-26.799 33.447-32.931 8.28-3.464 10.434-3.68 12.5-1.254 1.958 2.299 19.82 51.685 19.82 54.798 0 2.886-1.899 4.201-12.355 8.55-8.039 3.344-10.764 6.122-9.006 9.181 0.474 0.824 20.644 17.521 44.823 37.111 28.248 22.88 44.758 35.61 46.178 35.61 3.27 0 5.36-2.66 5.37-6.82 0-5.44 1.81-10.99 3.77-11.59 2.27-0.7 46.94-4.59 52.69-4.59 6.03 0 7.51 2.33 8.02 12.65 0.36 7.29-0.73 14.81-3.34 23.14-1.54 4.89-9.33 15.31-15.88 21.23-12.17 10.99-20.18 12.27-40.77 6.5z"/>
  <path id="path1946" d="m153.5 200.52c-16.14-4.51-26.67-8.49-41-15.49-44.691-21.84-82.595-60.67-103.5-106.03-2.7633-6.002-3.5287-9.04-3.8308-15.212-0.3591-7.336-0.1805-8.115 3.6671-16 7.2577-14.872 18.55-25.8 32.844-31.783 3.95-1.653 7.837-3.005 8.64-3.005 3.107 0 5.596 3.931 9.499 15 2.23 6.325 6.333 17.737 9.118 25.36 5.266 14.415 5.913 17.709 3.813 19.405-0.688 0.555-5.242 2.734-10.122 4.843-9.022 3.898-11.775 6.564-9.989 9.671 0.474 0.824 20.644 17.521 44.823 37.111 45.728 37.04 47.918 38.5 50.498 33.68 0.57-1.07 1.04-3.43 1.05-5.25 0-5.11 1.87-10.65 3.77-11.23 2.27-0.7 46.94-4.59 52.69-4.59 3.57 0 4.77 0.46 5.89 2.25 3.28 5.23 2.79 21.56-0.97 32.7-3.36 9.94-16.95 24.93-26.89 29.65-7.16 3.41-14.98 3.13-30-1.08z"/>
  <path id="path1944" d="m164.5 203.5c-0.55-0.18-6.18-1.77-12.5-3.52-61.159-16.91-112.55-59.35-140.38-115.91-5.6394-11.459-6.1478-13.047-6.4742-20.215-0.3365-7.393-0.1535-8.19 3.6905-16.067 6.9247-14.191 16.923-24.23 30.659-30.786 7.965-3.801 11.49-4.508 13.829-2.773 1.96 1.453 20.676 51.533 20.676 55.324 0 2.924-1.02 3.646-10.991 7.773-9.015 3.731-11.906 6.41-10.399 9.636 0.489 1.049 11.015 10.101 23.39 20.118 12.375 10.01 26.71 21.63 31.86 25.81 30.55 24.84 33.59 27.11 36.31 27.11 3.23 0 4.83-2.37 4.84-7.18 0-5.11 1.86-10.65 3.77-11.24 2.15-0.67 47.21-4.56 52.95-4.57 6.25-0.01 7.55 2.51 7.6 14.78 0.07 17.2-5.58 29.87-18.63 41.8-8.42 7.69-14.4 10.41-22.7 10.32-3.58-0.04-6.95-0.22-7.5-0.41z"/>
  <path id="path1942" d="m159.39 202c-22.19-5.26-50.52-17.64-70.39-30.76-33.047-21.82-59.199-51.23-77.097-86.696l-6.403-12.687v-8.678c0-7.858 0.3225-9.332 3.4101-15.587 3.2429-6.568 10.129-15.988 14.548-19.899 4.517-3.998 15.378-10.533 20.91-12.581 6.167-2.283 9.054-2.089 10.511 0.706 2.043 3.919 19.121 52.076 19.121 53.918 0 2.707-1.145 3.506-10.5 7.325-9.66 3.944-11.989 5.854-11.161 9.155 0.407 1.622 14.532 13.698 43.675 37.344 23.686 19.22 44.336 35.48 45.886 36.13 4.68 1.99 6.68-0.25 7.43-8.35 0.42-4.5 1.22-7.31 2.4-8.45 1.41-1.36 6.05-2.07 22.77-3.51 11.55-0.99 24.36-1.82 28.48-1.84 7.3-0.04 7.51 0.03 8.89 2.9 2.21 4.59 1.79 20.56-0.76 28.63-3.8 12-15.77 26.17-27.08 32.04-5.89 3.06-14.22 3.36-24.64 0.89z"/>
  <path id="path1940" d="m156.5 201.02c-61.634-15.96-112.66-56.37-142.71-113.02-10.572-19.932-11.241-27.561-3.69-42.075 5.106-9.815 14.169-19.898 22.274-24.78 7.587-4.57 17.306-8.381 19.555-7.667 1.992 0.632 4.711 6.294 9.136 19.022 1.529 4.4 5.077 14.3 7.884 22 2.916 7.999 4.882 14.915 4.587 16.135-0.385 1.59-3.08 3.231-10.55 6.42-7.851 3.353-10.16 4.79-10.617 6.612-0.322 1.281-0.346 2.95-0.055 3.71 0.292 0.76 5.853 5.686 12.358 10.946 6.506 5.257 21.053 17.047 32.328 26.187 39.12 31.71 45.19 36.49 46.37 36.49 0.65 0 2.14-0.67 3.3-1.48 1.68-1.17 2.27-2.98 2.83-8.55 0.57-5.69 1.13-7.32 2.86-8.39 3.09-1.93 54.74-6.13 57.45-4.68 3.68 1.97 4.54 16.3 1.72 28.67-1.88 8.24-6.84 16.45-14.74 24.36-13.64 13.67-20.15 15.3-40.29 10.09z"/>
  <path id="path1938" d="m163 202.44c-46.54-10.06-91.191-37.47-123.68-75.94-14.413-17.07-32.935-50.068-33.999-60.575-1.1134-10.994 5.217-24.414 17.179-36.42 8.289-8.319 19.863-14.777 26.736-14.918 5.162-0.105 5.139-0.143 13.31 22.429 9.689 26.763 11.477 32.336 10.931 34.057-0.31 0.975-4.591 3.347-10.254 5.68-7.88 3.247-9.905 4.513-10.685 6.68-0.635 1.765-0.609 3.249 0.077 4.37 1.094 1.789 80.215 66.557 86.605 70.897 6.75 4.58 10.76 0.94 10.77-9.76 0.01-6.62 0.97-7.08 18.1-8.54 8.48-0.72 20.97-1.83 27.78-2.47 15.71-1.45 16.09-1.2 16.84 11.2 1.07 17.56-3.33 28.66-16.62 41.97-6.86 6.88-9.75 9.04-14.38 10.75-6.62 2.46-9.61 2.55-18.71 0.59z"/>
  <path id="path1936" d="m160.27 201.5c-29.79-6.92-59.01-20.91-85.806-41.06-16.173-12.17-38.206-36.39-50.358-55.36-6.231-9.724-15.273-26.877-17.04-32.32-3.7083-11.422-0.8684-22.287 9.653-36.932 8.797-12.245 33.011-25.822 36.884-20.682 1.19 1.579 3.749 8.198 13.421 34.714 8.083 22.159 8.071 22.566-0.736 25.608-9.774 3.376-13.766 5.857-14.102 8.764-0.442 3.829 0.267 4.732 9.814 12.476 31.298 25.392 67.5 54.712 72.95 59.102 3.55 2.85 7.4 5.19 8.56 5.19 4.54 0 6.25-2.97 6.42-11.14 0.13-6.63 2.29-8 14.14-9.01 47.89-4.08 44.29-3.92 46.2-2.02 2.83 2.82 3.41 15.79 1.17 26.15-2.19 10.14-8.24 19.96-17.42 28.27-11.36 10.27-18.04 11.91-33.75 8.25z"/>
 </g>
</svg>
